<svg width="49" height="31" viewBox="0 0 49 31" fill="none" xmlns="http://www.w3.org/2000/svg">
<path fill-rule="evenodd" clip-rule="evenodd" d="M23.396 0.0306418C23.2203 0.0544914 22.8301 0.134266 22.5288 0.207928C17.6727 1.39521 14.8586 6.4844 16.4152 11.2641C17.139 13.4865 18.7722 15.3516 20.8715 16.3531L21.268 16.5423L20.7487 16.7357C19.7817 17.0958 18.897 17.5852 18.0071 18.2522C15.6835 19.9939 14.1518 22.6438 13.769 25.5844C13.6814 26.2565 13.6626 29.4087 13.7442 29.7204C13.8202 30.0105 13.9782 30.2608 14.2429 30.51C14.5261 30.7768 14.7703 30.8911 15.1858 30.9516C15.6157 31.0142 33.4127 31.0142 33.8426 30.9516C34.2581 30.8911 34.5023 30.7768 34.7855 30.51C35.051 30.2599 35.2082 30.0104 35.2851 29.7169C35.3511 29.4648 35.3492 26.3032 35.2827 25.7479C34.8974 22.5308 33.1693 19.6769 30.532 17.9019C29.9218 17.4912 28.7966 16.9192 28.1771 16.7047L27.7553 16.5587L28.2684 16.2991C30.9318 14.9516 32.6629 12.4538 33.0012 9.47024C33.2536 7.24447 32.5219 4.82914 31.0577 3.05425C30.0206 1.79716 28.4691 0.764464 26.961 0.327543C26.053 0.064509 25.736 0.0190153 24.6967 0.0026561C24.157 -0.00584518 23.5717 0.00674632 23.396 0.0306418ZM7.37814 4.64914C5.49914 4.94314 3.65338 6.09224 2.5498 7.6551C2.17807 8.18154 1.69949 9.13088 1.51428 9.70924C0.402951 13.1801 1.926 16.9282 5.13512 18.6199L5.59599 18.8629L5.41366 18.9388C4.23332 19.4306 3.32545 20.0409 2.46382 20.9217C1.26906 22.1429 0.519652 23.5426 0.157682 25.2289C0.0457273 25.7503 0.0369645 25.8838 0.0106759 27.4608C-0.00470474 28.3833 -0.00328987 29.2759 0.0137794 29.4443C0.0560876 29.8618 0.226552 30.2061 0.528688 30.4841C0.833973 30.765 1.10343 30.8949 1.50013 30.9521C1.68237 30.9784 3.75958 30.9972 6.58309 30.9983L11.3579 31L11.3839 28.4837C11.4117 25.7915 11.4395 25.3817 11.6689 24.2875C11.9628 22.8858 12.4828 21.5343 13.1958 20.319C13.3236 20.1012 13.4156 19.9026 13.4003 19.8777C13.3189 19.7451 11.7395 18.9166 11.5639 18.9143C11.4334 18.9126 11.5334 18.8345 11.8804 18.6668C13.3188 17.9719 14.6057 16.6164 15.2802 15.0857L15.4786 14.6354L15.2769 14.3009C14.3292 12.729 13.7915 10.9812 13.7057 9.19452C13.6701 8.45229 13.7071 7.50001 13.7882 7.07108L13.8385 6.80497L13.5009 6.48146C12.5776 5.59669 11.1615 4.9033 9.79901 4.66881C9.15745 4.55838 8.01755 4.5491 7.37814 4.64914ZM39.1932 4.6689C37.8537 4.91369 36.4599 5.60064 35.5313 6.47379C35.2365 6.75102 35.193 6.81164 35.2149 6.91498C35.3502 7.5529 35.3737 9.11259 35.2611 9.97876C35.0684 11.4617 34.544 12.974 33.7782 14.2552L33.55 14.637L33.6968 14.9716C34.2087 16.1381 35.0675 17.2389 36.035 17.9688C36.4312 18.2677 37.2362 18.7513 37.4112 18.7955C37.5252 18.8243 37.5654 18.9134 37.4645 18.9138C37.29 18.9145 35.708 19.7473 35.6253 19.8821C35.6117 19.9043 35.7167 20.1213 35.8588 20.3644C36.7615 21.9088 37.3358 23.6602 37.5679 25.5767C37.5984 25.8287 37.6313 27.0675 37.6455 28.5066L37.6702 31L42.4451 30.9983C45.3035 30.9972 47.3451 30.9785 47.5316 30.9516C47.9572 30.8902 48.2798 30.7256 48.5609 30.4263C49.0127 29.9453 49 30.0214 49 27.8054C49 26.1278 48.9892 25.8213 48.9175 25.4618C48.546 23.598 47.8045 22.1878 46.5134 20.8895C45.6692 20.0407 44.9143 19.5166 43.8971 19.0735L43.4496 18.8785L43.8933 18.6398C45.9158 17.5518 47.2717 15.7542 47.7546 13.5209C47.8416 13.1182 47.8555 12.9134 47.8564 12.0206C47.8572 11.1179 47.8445 10.9295 47.7564 10.5357C47.0914 7.56558 45.0092 5.43332 42.0855 4.72864C41.6717 4.62887 41.4754 4.61072 40.6479 4.59565C39.8392 4.58094 39.6119 4.59234 39.1932 4.6689Z" fill="#D9D9D9"/>
</svg>
