<svg width="34" height="41" viewBox="0 0 34 41" fill="none" xmlns="http://www.w3.org/2000/svg">
<path d="M9.17676 2.00586L9.17773 2.00684L9.0459 2.1416V18.3379C9.04599 26.283 9.04738 30.3717 9.0625 32.498C9.07007 33.5632 9.08083 34.128 9.09668 34.4375C9.11055 34.7084 9.12895 34.7381 9.12012 34.7139C9.13619 34.7428 9.1497 34.7684 9.15918 34.7891C9.19598 34.7986 9.26147 34.8135 9.37305 34.8262C9.53292 34.8442 9.762 34.8594 10.0928 34.8711C11.4212 34.9182 14.2474 34.9102 20.3848 34.9102C25.5866 34.9101 28.3513 34.9084 29.8408 34.8936C30.5873 34.8861 31.0051 34.8751 31.2471 34.8604C31.3952 34.8513 31.4586 34.8409 31.4795 34.8369C31.5475 34.7987 31.6474 34.7126 31.6787 34.6689L31.7354 34.5889V7.35742L29.9336 7.33105C29.3296 7.3222 28.765 7.30776 28.3418 7.29102C28.1307 7.28266 27.9519 7.27377 27.8203 7.26465C27.7551 7.26013 27.6973 7.25526 27.6514 7.25C27.6288 7.24741 27.6043 7.24343 27.5811 7.23926C27.5762 7.2384 27.56 7.2362 27.5381 7.23047L27.458 7.20117C27.0835 7.02301 26.7743 6.70415 26.5889 6.32227L26.4297 5.99414L26.3896 5.91309V1.87695H9.30371L9.17676 2.00586ZM16.5928 29.1924C17.7024 29.1924 18.8132 29.1989 19.6543 29.2129C20.0744 29.2199 20.4304 29.2286 20.6855 29.2393C20.8122 29.2445 20.9191 29.251 20.998 29.2578C21.0364 29.2611 21.0758 29.2648 21.1104 29.2705C21.1268 29.2732 21.1517 29.2784 21.1787 29.2861C21.1921 29.29 21.2143 29.2963 21.2393 29.3076C21.2488 29.3119 21.2662 29.3212 21.2881 29.335L21.3623 29.3945L21.4199 29.4629C21.5398 29.6294 21.5577 29.8317 21.5449 29.9707C21.5312 30.1194 21.4638 30.3793 21.2246 30.5107C21.1694 30.5411 21.117 30.5522 21.1055 30.5547C21.0841 30.5594 21.0631 30.5622 21.0469 30.5645C21.0136 30.569 20.9744 30.5732 20.9346 30.5762C20.8537 30.5822 20.7457 30.5871 20.6172 30.5918C20.3585 30.6012 20.0011 30.6084 19.5811 30.6143C18.7402 30.626 17.6368 30.6312 16.5371 30.6299C15.4374 30.6286 14.339 30.6212 13.5088 30.6074C13.0942 30.6006 12.744 30.592 12.4932 30.582C12.3685 30.5771 12.2637 30.5718 12.1865 30.5654C12.149 30.5624 12.1105 30.5579 12.0771 30.5527C12.0614 30.5503 12.0376 30.5461 12.0117 30.5391C11.9989 30.5355 11.9771 30.5294 11.9521 30.5186C11.9346 30.5109 11.8775 30.4854 11.8232 30.4297C11.7378 30.3419 11.6958 30.2332 11.6758 30.168C11.6522 30.0912 11.6367 30.0018 11.6367 29.9121C11.6367 29.8224 11.6522 29.7331 11.6758 29.6562C11.6958 29.5911 11.7378 29.4823 11.8232 29.3945L11.8965 29.335C11.9187 29.3209 11.9367 29.312 11.9463 29.3076C11.9713 29.2963 11.9934 29.29 12.0068 29.2861C12.0338 29.2784 12.0588 29.2732 12.0752 29.2705C12.1097 29.2648 12.1491 29.2611 12.1875 29.2578C12.2665 29.251 12.3733 29.2445 12.5 29.2393C12.7551 29.2286 13.1112 29.2199 13.5312 29.2129C14.3724 29.1989 15.4831 29.1924 16.5928 29.1924ZM20.373 24.5146C24.4525 24.5146 26.5079 24.5139 27.5566 24.5303C28.075 24.5384 28.368 24.5509 28.54 24.5723C28.6242 24.5827 28.7131 24.5994 28.7949 24.6357C28.9001 24.6825 28.9583 24.7467 28.9854 24.7773C29.0474 24.8478 29.1299 24.9551 29.1572 25.1064C29.1838 25.2533 29.147 25.3818 29.1172 25.4688L29.0576 25.6436L28.9668 25.9082L28.6875 25.9092L20.4365 25.9258L12.1865 25.9434H11.9971L11.8789 25.7959L11.7725 25.6641C11.6706 25.537 11.6043 25.375 11.6172 25.1885C11.6293 25.0142 11.7083 24.8672 11.7959 24.751L11.8516 24.6904C11.9091 24.6401 11.9653 24.6196 11.9766 24.6152C12.009 24.6027 12.0385 24.5957 12.0566 24.5918C12.0943 24.5838 12.1349 24.5789 12.1719 24.5752C12.2489 24.5674 12.3562 24.561 12.4932 24.5557C12.7694 24.5449 13.1978 24.5363 13.8223 24.5303C15.0734 24.5181 17.1294 24.5146 20.373 24.5146ZM12.1621 19.8936L20.4248 19.9092L28.6875 19.9258L28.9668 19.9268L29.0576 20.1914L29.1172 20.3662C29.147 20.4531 29.1838 20.5817 29.1572 20.7285C29.1299 20.8798 29.0474 20.9872 28.9854 21.0576C28.9583 21.0883 28.9 21.1525 28.7949 21.1992C28.7131 21.2355 28.6242 21.2522 28.54 21.2627C28.368 21.284 28.075 21.2956 27.5566 21.3037C26.5079 21.3201 24.4525 21.3203 20.373 21.3203C17.1294 21.3203 15.0734 21.3168 13.8223 21.3047C13.1978 21.2986 12.7694 21.29 12.4932 21.2793C12.3562 21.274 12.2489 21.2676 12.1719 21.2598C12.135 21.256 12.0943 21.2512 12.0566 21.2432C12.0386 21.2393 12.009 21.2323 11.9766 21.2197C11.9615 21.2139 11.8677 21.1793 11.7959 21.084C11.7106 20.9709 11.635 20.8302 11.6191 20.6631C11.6025 20.4864 11.6564 20.3288 11.7441 20.2002H11.7451L11.8379 20.0645L11.9541 19.8926L12.1621 19.8936ZM20.3662 15.209C24.4494 15.209 26.5072 15.2092 27.5566 15.2256C28.0747 15.2337 28.367 15.2463 28.5391 15.2676C28.6233 15.278 28.713 15.2938 28.7949 15.3301C28.8476 15.3535 28.8888 15.3814 28.9199 15.4072L28.9854 15.4727L29.0342 15.5322C29.0847 15.5992 29.1367 15.6881 29.1572 15.8018C29.1704 15.875 29.1676 15.9437 29.1582 16.0049L29.1172 16.1641L29.0576 16.3389L28.9668 16.6035H28.6875L12.1582 16.6367H11.9424L11.8262 16.4551L11.7236 16.2949C11.692 16.2454 11.5909 16.1017 11.5908 15.9229C11.5907 15.7437 11.692 15.6004 11.7236 15.5508L11.8262 15.3906L11.9424 15.209H20.3662ZM20.4336 10.6045L28.6875 10.6211H28.9668L29.0576 10.8867L29.1172 11.0605C29.147 11.1475 29.1838 11.2768 29.1572 11.4238C29.1298 11.575 29.0474 11.6826 28.9854 11.7529C28.9583 11.7837 28.8998 11.8479 28.7949 11.8945C28.7132 11.9308 28.6242 11.9466 28.54 11.957C28.3681 11.9784 28.0756 11.9909 27.5576 11.999C26.5096 12.0154 24.4554 12.0156 20.3779 12.0156C17.2319 12.0156 15.1761 12.0109 13.8994 11.999C13.2617 11.9931 12.8145 11.9858 12.5225 11.9756C12.3774 11.9705 12.2644 11.9641 12.1836 11.957C12.1446 11.9536 12.1043 11.9498 12.0684 11.9434C12.051 11.9402 12.024 11.935 11.9951 11.9258C11.9846 11.9224 11.8979 11.8969 11.8232 11.8203C11.737 11.7317 11.6939 11.6266 11.6719 11.5488C11.6485 11.4662 11.6386 11.3808 11.6387 11.3018C11.6387 11.2227 11.6484 11.1372 11.6719 11.0547C11.694 10.977 11.7371 10.8726 11.8232 10.7842C11.8978 10.7077 11.9844 10.6822 11.9951 10.6787C12.024 10.6694 12.0509 10.6643 12.0684 10.6611C12.1045 10.6546 12.1447 10.6499 12.1836 10.6465C12.2642 10.6395 12.3768 10.6337 12.5215 10.6289C12.8129 10.6192 13.2597 10.6131 13.8994 10.6084C15.1804 10.599 17.2502 10.5982 20.4336 10.6045ZM27.8008 3.7959C27.8008 4.81327 27.8078 5.30856 27.8525 5.58301C27.8733 5.71037 27.8967 5.74837 27.9033 5.75781C27.9097 5.76695 27.9238 5.78447 28.0029 5.83398C28.0327 5.85262 28.0411 5.85606 28.0566 5.86035C28.0832 5.86763 28.138 5.87779 28.2607 5.88574C28.5099 5.90187 28.946 5.9042 29.7988 5.9043C30.1432 5.90434 30.4651 5.90012 30.7373 5.89551C30.7164 5.87364 30.6956 5.85087 30.6738 5.82812C30.2913 5.42801 29.7793 4.8999 29.2656 4.37305C28.7522 3.84643 28.2377 3.32194 27.8477 2.92969C27.835 2.91693 27.822 2.90406 27.8096 2.8916C27.8057 3.1566 27.8008 3.46585 27.8008 3.7959ZM33.1611 20.7031L33.1455 34.8857V34.9814L33.1006 35.0674L32.9619 35.333C32.7489 35.7419 32.3332 36.114 31.9043 36.2461C31.8101 36.275 31.6665 36.2874 31.5303 36.2959C31.374 36.3056 31.1635 36.3133 30.8984 36.3193C30.3676 36.3314 29.6026 36.3369 28.5791 36.3369H25.9932L25.9766 37.3145C25.9666 37.8949 25.9557 38.2587 25.9346 38.502C25.9127 38.7534 25.8766 38.9154 25.7949 39.0752C25.6012 39.454 25.3066 39.7654 24.9414 39.9678L24.6914 40.1064L24.6025 40.1553H24.501L13.3145 40.1719C8.4362 40.1793 5.62706 40.181 4.00293 40.1699C3.19203 40.1644 2.67205 40.1553 2.33594 40.1426C2.01918 40.1306 1.82115 40.115 1.69434 40.0771C1.29549 39.9581 0.911227 39.6499 0.666992 39.2852L0.571289 39.126C0.526008 39.041 0.506559 38.9513 0.494141 38.8604C0.481481 38.7676 0.471726 38.6398 0.463867 38.459C0.448048 38.0948 0.437141 37.4702 0.428711 36.376C0.411819 34.1831 0.405173 30.0787 0.396484 22.3398C0.390234 16.7546 0.390794 12.6368 0.398438 9.89551C0.402259 8.52512 0.408606 7.49765 0.416016 6.80273C0.419719 6.45552 0.423057 6.18951 0.427734 6.00488C0.430064 5.9129 0.432771 5.83824 0.435547 5.7832C0.436911 5.75621 0.438501 5.73086 0.44043 5.70898C0.441246 5.69974 0.445125 5.65328 0.458008 5.60742L0.521484 5.42383C0.694015 5.00083 1.03612 4.62339 1.43945 4.43066L1.76367 4.27539L1.84375 4.2373H1.93262L4.94336 4.23633L7.56641 4.23535L7.58398 3.25781C7.59399 2.67729 7.60479 2.31356 7.62598 2.07031C7.64787 1.81919 7.68402 1.65775 7.76562 1.49805C8.02573 0.989407 8.43795 0.630137 8.97363 0.462891L9.0791 0.443359C9.09804 0.441678 9.11962 0.440578 9.1416 0.439453C9.18655 0.437159 9.247 0.435539 9.31934 0.433594C9.46478 0.429683 9.67018 0.42615 9.9248 0.422852C10.4345 0.416251 11.1493 0.410654 12 0.40625C13.7021 0.397438 15.9512 0.392643 18.1963 0.392578C20.4414 0.392514 22.6835 0.396557 24.3711 0.405273C25.2147 0.409631 25.9211 0.415298 26.4199 0.421875C26.6687 0.425156 26.8676 0.428709 27.0068 0.432617C27.0759 0.434558 27.1335 0.437097 27.1758 0.439453C27.1961 0.440586 27.2178 0.441344 27.2373 0.443359C27.2464 0.444308 27.2623 0.446152 27.2793 0.449219C27.2875 0.450712 27.3019 0.45408 27.3193 0.458984C27.3239 0.460276 27.3388 0.463868 27.3584 0.47168L27.4287 0.507812V0.508789C27.458 0.527814 27.4815 0.549035 27.4824 0.549805C27.4905 0.556954 27.4994 0.564325 27.5068 0.571289C27.522 0.58549 27.5408 0.60387 27.5625 0.625C27.6066 0.668037 27.668 0.728564 27.7432 0.803711C27.8939 0.954417 28.1057 1.16836 28.3623 1.42871C28.8757 1.94956 29.5712 2.65984 30.3252 3.43359L33.0664 6.24609L33.1777 6.36035V6.52051L33.1611 20.7031Z" fill="white" stroke="white" stroke-width="0.785139"/>
</svg>
