<svg width="36" height="45" viewBox="0 0 36 45" fill="none" xmlns="http://www.w3.org/2000/svg">
<path fill-rule="evenodd" clip-rule="evenodd" d="M12.639 0.273066L12.2755 0.56889V3.23017C12.2755 5.86873 12.2783 5.8944 12.6084 6.23567C12.8944 6.53163 13.0669 6.58002 13.8345 6.58002H14.7278L14.6882 7.65531L14.6486 8.73045L13.4262 9.04016C10.1627 9.86718 7.60045 11.38 5.14734 13.9282C2.51632 16.6613 1.05747 19.4523 0.259431 23.2792C-0.0801255 24.9081 -0.0878555 28.6221 0.245057 30.2373C1.42076 35.9404 4.87993 40.6207 9.81136 43.1801C14.0494 45.3799 19.6325 45.6032 24.1353 43.7531C27.9614 42.181 31.1141 39.2521 33.1971 35.3347C33.8004 34.2002 34.2939 32.8534 34.7391 31.1267C35.2083 29.3062 35.3364 25.6536 34.9971 23.7627C34.7224 22.231 34.326 20.8076 33.8905 19.7889C33.7117 19.3708 33.5656 18.9499 33.5656 18.8534C33.5656 18.757 34.0386 18.3452 34.6165 17.9385C35.8058 17.1016 36.0093 16.8865 35.9997 16.4771C35.9959 16.3182 35.4924 15.4309 34.8809 14.5051C33.8784 12.9875 33.7253 12.8175 33.3246 12.7777C32.9924 12.7446 32.7187 12.8536 32.2397 13.2096C31.8874 13.4715 31.3694 13.8285 31.0886 14.0031L30.5779 14.3204L29.5291 13.3459C28.2468 12.1545 26.9477 11.2266 25.5275 10.4881C24.3539 9.8777 22.0362 9.03301 21.1237 8.88306L20.5474 8.78838V7.70005V6.61172L21.48 6.55716C22.8999 6.47412 22.8527 6.58381 22.8527 3.36356C22.8527 1.20093 22.8109 0.543079 22.6603 0.329874C22.4772 0.0708008 22.2395 0.0556535 17.7353 0.0175009C13.0967 -0.0219141 12.9954 -0.0168657 12.639 0.273066ZM15.6595 12.195C12.196 12.6958 8.71336 14.7308 6.56293 17.5106C2.21487 23.1307 2.33895 30.9181 6.86452 36.4388C8.43022 38.3489 11.0614 40.1007 13.4959 40.8539C17.1532 41.9855 20.9855 41.5854 24.3444 39.7217C30.3487 36.3897 33.2269 28.9479 31.1077 22.2352C29.5434 17.2804 25.4331 13.444 20.5615 12.3917C19.3016 12.1194 16.8597 12.0215 15.6595 12.195ZM17.2929 20.8663V26.5965L12.9958 29.9486C10.6325 31.7924 8.67431 33.3807 8.64448 33.4783C8.56271 33.7452 10.4551 35.6937 11.4824 36.4006C15.1443 38.9201 20.043 38.9753 23.7252 36.5389C25.3748 35.4473 27.1448 33.3191 27.9298 31.4828C29.1714 28.5788 29.1696 24.9736 27.9249 22.0627C26.7078 19.216 24.0181 16.694 21.2199 15.7755C20.2268 15.4497 18.4966 15.1363 17.6899 15.1363H17.2929V20.8663Z" fill="white"/>
</svg>
