<svg width="93" height="73" viewBox="0 0 93 73" fill="none" xmlns="http://www.w3.org/2000/svg">
<path fill-rule="evenodd" clip-rule="evenodd" d="M91.3553 0.649739C89.5989 2.4436 85.5482 5.73085 81.7694 8.42924C77.0408 11.8058 72.5311 14.6327 66.6966 17.8776C62.2885 20.3293 62.0168 20.5495 57.2269 25.5529C55.958 26.8783 55.5776 27.2032 54.9224 27.5206C54.4908 27.7297 53.9121 27.9254 53.6364 27.9555C52.7702 28.0501 52.5619 27.8898 51.9778 26.6795C51.3411 25.3602 51.1551 24.4257 51.256 23.0538L51.331 22.034L50.8886 21.8475C50.6453 21.7449 49.8149 21.6029 49.0433 21.5321C48.0798 21.4437 47.5488 21.3405 47.3481 21.2025C47.1873 21.0921 46.8328 20.935 46.5602 20.8535C46.0918 20.7134 46.0246 20.7254 45.3327 21.0726C44.7227 21.3787 44.3811 21.4601 43.2814 21.561C42.5559 21.6275 41.7644 21.7611 41.5227 21.8578L41.0832 22.0336L41.0799 23.5212C41.0763 25.1763 40.9328 25.7357 40.1554 27.1258C39.7966 27.7674 39.6881 27.8738 39.3231 27.9423C38.6938 28.0604 37.7753 27.8047 36.9959 27.2944C36.3106 26.8458 35.4948 26.0393 32.8594 23.2047C30.6365 20.8139 29.9301 20.3146 24.3394 17.182C14.4482 11.6397 6.55482 6.11654 0.981284 0.837729C0.522999 0.403762 0.114635 0.0485917 0.0739504 0.0485917C-0.0617813 0.0485917 -0.00250785 1.17957 0.185132 2.16933C1.13151 7.16147 4.22049 11.6117 9.10414 15.0187C9.83693 15.53 10.3858 15.9483 10.324 15.9483C10.2621 15.9483 9.40004 15.5881 8.4083 15.1479C7.41667 14.7077 6.0002 14.0806 5.26075 13.7543C4.5213 13.4279 3.18362 12.8136 2.28821 12.389C1.3928 11.9643 0.616527 11.6606 0.563333 11.7138C0.363301 11.9138 1.12567 13.9822 1.84384 15.1883C3.25856 17.5644 5.03137 19.1764 7.69188 20.5061C9.86628 21.5929 14.6677 23.3344 14.4303 22.9502C14.3395 22.8031 14.2383 22.7821 16.9767 23.482C18.3454 23.8318 19.9256 24.2073 20.4883 24.3164L21.5115 24.5147L22.017 25.5801C23.4828 28.669 26.021 31.8462 28.8764 34.1659C31.0629 35.9422 31.194 36.0157 31.7104 35.753L32.0914 35.5593L31.8245 35.8489C31.4979 36.2032 31.4456 36.1533 33.2076 37.1667C33.944 37.5904 34.6368 37.9138 34.7471 37.8856C34.8575 37.8574 34.9364 37.8905 34.9225 37.9592C34.9086 38.028 35.397 38.309 36.0079 38.5839C37.0422 39.0493 37.6196 39.2449 37.1478 38.97C36.9615 38.8615 36.9588 38.8206 37.1171 38.5144C37.2128 38.3294 37.3124 37.898 37.3384 37.5558C37.3644 37.2135 37.4226 36.8431 37.4677 36.7327C37.5129 36.6224 37.5276 36.4656 37.5006 36.3846C37.4736 36.3035 37.5475 36.1339 37.665 36.0079C37.7823 35.8819 37.8837 35.644 37.8901 35.4792L37.9017 35.1798L37.9954 35.4721C38.0468 35.6329 38.0941 36.0409 38.1006 36.379C38.1505 39.0086 39.4629 44.0246 41.0904 47.806C41.3948 48.5133 41.6868 49.2026 41.7391 49.3378C42.0265 50.0789 39.2132 55.3155 36.2919 59.4768C35.1815 61.0585 34.8469 61.6181 34.9039 61.7979C34.9879 62.0623 37.0951 64.7152 37.5744 65.1597C37.765 65.3365 37.9229 65.403 37.9906 65.3351C38.2119 65.1127 39.303 62.9091 39.3412 62.6076C39.363 62.436 39.5899 61.85 39.8456 61.3054C40.1011 60.7609 40.5803 59.6051 40.9104 58.7371C41.2404 57.869 41.5612 57.0379 41.6234 56.8903C41.7619 56.5613 41.7707 56.0831 41.6398 56.0022C41.5866 55.9694 41.4444 55.6111 41.3239 55.2062C41.2033 54.8012 41.0693 54.4436 41.0259 54.4114C40.9826 54.3793 40.8164 54.2539 40.6566 54.1328L40.366 53.9127L41.1271 52.2786C41.5458 51.3798 41.8936 50.4926 41.9 50.307C41.9066 50.1213 41.9246 49.9693 41.94 49.9691C41.9555 49.969 42.1316 50.2582 42.3312 50.6119C42.5307 50.9655 42.7141 51.2549 42.7384 51.2549C42.8401 51.2549 42.6186 50.4836 42.476 50.341C42.2975 50.1625 42.2755 49.822 42.4235 49.5288C42.6915 48.9985 42.7983 48.4517 42.6779 48.2268C42.6102 48.1003 42.5549 47.9275 42.5552 47.843C42.5554 47.7583 42.713 48.0048 42.9055 48.3906C43.2747 49.1306 43.2676 48.862 42.8951 48.0006C42.0833 46.123 40.9021 40.2513 41.3088 40.1156C41.3676 40.0961 41.4255 39.7928 41.4374 39.4419C41.4577 38.8458 41.7049 38.2473 42.026 38.0166C42.0919 37.9694 42.0997 37.93 42.0437 37.929C41.75 37.9238 42.4697 37.3985 42.8221 37.3609C42.8726 37.3554 42.991 37.2739 43.0851 37.1797C43.3025 36.9625 44.4397 36.6171 45.1268 36.5598C46.1777 36.472 47.0909 36.4677 47.0395 36.5508C47.0106 36.5976 47.189 36.6075 47.4361 36.5729C47.774 36.5257 48.033 36.5843 48.4813 36.8094C48.809 36.9742 49.15 37.1088 49.239 37.1088C49.3281 37.1088 49.4747 37.2113 49.5648 37.3363C49.6551 37.4616 49.7731 37.5366 49.8274 37.5031C49.8815 37.4696 49.9161 37.4855 49.9041 37.5386C49.8922 37.5916 49.9465 37.791 50.0249 37.9817C50.1385 38.2583 50.1892 38.2938 50.2757 38.1571C50.3535 38.0342 50.3847 38.1122 50.386 38.4324C50.3869 38.6781 50.4587 38.9502 50.5455 39.0369C50.6356 39.1271 50.6935 39.3987 50.6805 39.6715C50.668 39.9338 50.6973 40.1485 50.7456 40.1485C50.794 40.1485 50.8076 40.2477 50.7758 40.3691C50.7441 40.4904 50.7682 40.6207 50.8294 40.6586C50.9756 40.7488 50.8528 42.0822 50.6279 42.8465C50.5602 43.0766 50.4852 43.4186 50.4614 43.6064C50.2778 45.0531 49.9795 46.2848 49.3802 48.0698C49.2194 48.5492 49.1102 48.9642 49.1379 48.9917C49.1994 49.0532 49.5694 48.2912 49.5694 48.103C49.5694 48.0285 49.6207 47.9993 49.6834 48.0381C49.7461 48.0768 49.7779 48.2764 49.754 48.4814C49.7301 48.6865 49.7659 49.1514 49.8335 49.5147C49.9442 50.1104 49.9316 50.215 49.7044 50.5826C49.5659 50.8068 49.4525 51.0787 49.4525 51.1868C49.4525 51.295 49.3704 51.5517 49.2701 51.7576L49.0877 52.1317L49.3195 51.8425C49.4471 51.6835 49.6966 51.2494 49.8742 50.878C50.0516 50.5065 50.2296 50.2027 50.2694 50.2027C50.3094 50.2027 50.5317 50.6631 50.7636 51.2256C50.9954 51.7883 51.3223 52.5548 51.4901 52.929C51.6577 53.3034 51.7479 53.5804 51.6901 53.5448C51.6325 53.5091 51.5541 53.636 51.5159 53.8266C51.4778 54.0173 51.3135 54.289 51.151 54.4304C50.9884 54.5717 50.8554 54.7595 50.8554 54.8475C50.8554 55.1048 50.5041 55.7109 50.3943 55.6431C50.2471 55.552 50.5267 56.4165 51.2647 58.3333C51.6237 59.2661 51.8809 60.0885 51.836 60.1611C51.7825 60.2478 51.8076 60.2602 51.9093 60.1973C52.0218 60.1278 52.0438 60.1549 51.9895 60.2962C51.9485 60.4031 51.9645 60.4907 52.0252 60.4907C52.1915 60.4907 52.5184 61.1889 52.4435 61.3841C52.4073 61.4781 52.4244 61.5263 52.4812 61.4912C52.5381 61.456 52.6164 61.5103 52.6552 61.6116C52.7543 61.87 52.7439 61.9185 52.607 61.834C52.4545 61.7396 52.7248 62.3164 53.6175 63.99C54.0113 64.7286 54.3863 65.3503 54.4507 65.3718C54.6567 65.4404 57.5192 61.9565 57.5192 61.6372C57.5192 61.5747 57.0803 60.9097 56.544 60.1595C55.2665 58.3729 54.3293 56.9629 53.4512 55.5058C52.6726 54.2138 51.2468 51.4132 50.912 50.5178C50.7663 50.1286 50.6716 50.0029 50.6033 50.1086C50.308 50.5666 50.749 49.1769 51.5061 47.2642C52.4725 44.8225 53.1653 42.6152 53.5926 40.6161C53.9515 38.937 54.2452 36.9645 54.2475 36.2171C54.2486 35.9037 54.3003 35.5686 54.3627 35.4721C54.4561 35.3275 54.4763 35.3388 54.4778 35.5364C54.4787 35.6683 54.5365 35.833 54.6059 35.9025C54.6755 35.972 54.7309 36.352 54.7289 36.7468C54.7271 37.1416 54.7973 37.668 54.8849 37.9165C55.0192 38.297 55.0193 38.4164 54.8858 38.6738C54.7986 38.8419 54.7635 38.9802 54.808 38.9811C54.8524 38.9822 54.8098 39.034 54.7134 39.0963C54.3899 39.3053 54.7834 39.2159 55.5406 38.9082C56.6447 38.4596 57.4023 38.0567 57.4023 37.9183C57.4023 37.8513 57.4529 37.8278 57.5149 37.8661C57.657 37.9539 58.5858 37.4938 59.8248 36.7218L60.7859 36.123L60.5386 35.8598L60.2915 35.5966L60.6507 35.7322C60.9098 35.8301 61.0863 35.8331 61.2839 35.7431C62.2912 35.2841 65.7203 32.1961 67.1023 30.5035C68.0856 29.2991 69.22 27.6143 69.8969 26.3532C70.2247 25.7423 70.4936 25.2719 70.4945 25.3079C70.5001 25.5321 69.7565 27.3344 69.5062 27.7031C69.1193 28.2733 69.0127 28.6862 69.2195 28.8141C69.3064 28.8678 69.695 28.8874 70.083 28.8579C72.0395 28.7087 75.3826 28.4895 75.6402 28.4936C76.5718 28.5084 80.3079 27.7636 81.6025 27.3051C84.6201 26.2363 86.9389 24.2916 88.4927 21.5266C88.7017 21.1546 88.8454 20.779 88.812 20.6917C88.7639 20.5666 88.2879 20.6542 86.5505 21.1077C83.8309 21.8176 80.9592 22.4988 78.5044 23.0165C77.4756 23.2335 75.2923 23.7521 73.6527 24.1691C72.013 24.5861 70.6541 24.9106 70.6328 24.8903C70.6115 24.8701 70.6488 24.7513 70.7156 24.6264C70.8 24.4686 71.0077 24.3793 71.3973 24.3331C71.7055 24.2966 73.2464 23.9402 74.8218 23.5409C76.3971 23.1418 77.9491 22.8042 78.2706 22.7907C78.975 22.7613 82.0356 21.6313 84.1443 20.6223C87.4701 19.0308 89.5337 17.0546 90.9023 14.1505C91.4054 13.0829 91.8141 11.7827 91.703 11.603C91.6706 11.5505 91.4233 11.62 91.1535 11.7578C90.6557 12.0117 89.8004 12.4037 85.4021 14.3935C82.204 15.8402 81.9533 15.9492 81.9533 15.891C81.9533 15.864 82.4924 15.4582 83.1516 14.989C87.3264 12.0177 90.0386 8.54696 91.4204 4.40791C92.0576 2.49901 92.4381 0.184088 92.1445 0.00252793C92.0913 -0.0303236 91.7361 0.260899 91.3553 0.649739ZM45.0684 14.1915C43.2512 14.594 42.0162 15.6344 41.3998 17.282C41.1375 17.9828 41.0472 18.5912 41.2116 18.5489C41.2752 18.5327 41.6955 18.3919 42.1456 18.2362C43.2268 17.8623 44.4677 17.7018 46.2751 17.7022C48.2798 17.7028 49.6207 17.944 51.1046 18.571C51.2737 18.6424 51.2836 18.5871 51.1921 18.0891C50.8831 16.4092 49.6126 14.9385 47.9911 14.3838C47.3018 14.1479 45.7315 14.0446 45.0684 14.1915ZM3.44959 20.74C3.24617 21.0692 4.95702 23.6003 6.09501 24.6539C8.73377 27.097 11.742 28.1549 17.244 28.5749C18.0799 28.6388 19.3688 28.743 20.1082 28.8069C21.807 28.9534 23.2648 28.9577 23.2648 28.8162C23.2648 28.7564 23.0411 28.2373 22.7679 27.6627C22.4947 27.0882 22.1132 26.2463 21.9203 25.792C21.5941 25.0237 21.5369 24.9571 21.102 24.8399C20.0388 24.5534 14.3898 23.2059 13.7951 23.0969C12.2778 22.8188 4.87776 21.0446 3.77998 20.6956C3.63782 20.6505 3.49296 20.6699 3.44959 20.74ZM47.2715 22.091C47.1628 22.3744 47.3145 22.4256 47.4596 22.1545C47.5501 21.9853 47.5519 21.9106 47.4655 21.9106C47.3969 21.9106 47.3096 21.9918 47.2715 22.091ZM44.9515 22.1445C44.9912 22.2088 45.0469 22.2614 45.0753 22.2614C45.1037 22.2614 45.1268 22.2088 45.1268 22.1445C45.1268 22.0802 45.0711 22.0275 45.003 22.0275C44.935 22.0275 44.9117 22.0802 44.9515 22.1445ZM78.8552 22.5051C78.5337 22.6293 78.4226 22.7012 78.6085 22.665C78.976 22.5936 79.7465 22.2808 79.5566 22.2799C79.4923 22.2797 79.1767 22.3811 78.8552 22.5051ZM47.3032 23.3536C46.9891 23.7495 46.6235 24.2971 46.4907 24.5703C46.358 24.8435 46.2169 25.0672 46.1774 25.0672C46.1377 25.0672 46.0166 24.8809 45.908 24.6532C45.6741 24.1628 44.5275 22.7047 44.4425 22.7897C44.41 22.8222 44.5012 23.0081 44.6453 23.2027L44.9069 23.5567L44.4324 24.1236C44.1713 24.4354 43.9577 24.753 43.9577 24.8296C43.9577 24.9061 44.2121 25.2671 44.5231 25.6317C44.8341 25.9964 45.2136 26.4789 45.3665 26.7039C45.6828 27.1698 45.9375 27.3963 46.1508 27.4016C46.3648 27.407 46.8647 26.8869 47.6309 25.8614C48.4329 24.788 48.444 24.4623 47.697 23.9284L47.2455 23.6058L47.6021 23.236C47.7983 23.0326 47.9398 22.8139 47.9165 22.75C47.8932 22.6861 47.6172 22.9578 47.3032 23.3536ZM82.5963 28.5174C82.4374 28.5736 77.4884 28.8877 73.4189 29.0997C69.5184 29.3029 68.392 29.3918 68.424 29.4938C68.4802 29.6726 68.0901 30.4206 67.7451 30.7957C67.5382 31.0208 67.3374 31.3403 67.2988 31.5057C67.2602 31.6712 67.0431 32.0495 66.8164 32.3463C66.5897 32.6431 66.4043 32.91 66.4043 32.9394C66.4043 33.0581 68.5774 33.3743 70.6131 33.5519C72.0524 33.6776 73.1865 33.7133 74.0034 33.6591C74.6786 33.6142 75.5554 33.5605 75.9519 33.5398C77.4284 33.4628 79.5259 32.6423 81.1932 31.4897C82.1237 30.8465 84.0576 28.9136 84.0576 28.627C84.0576 28.4976 83.8986 28.4598 83.3854 28.4668C83.0156 28.4718 82.6606 28.4946 82.5963 28.5174ZM8.24708 28.6832C8.16104 28.8222 9.13267 29.9918 9.92847 30.7072C11.343 31.979 13.3443 33.0451 15.1396 33.483C16.068 33.7095 16.4956 33.7387 18.7734 33.7318C20.1932 33.7275 21.8767 33.668 22.5145 33.5996C24.0573 33.4343 25.7057 33.1345 25.7859 33.0047C25.8215 32.9472 25.7939 32.9001 25.7247 32.9001C25.6553 32.9001 25.4085 32.4993 25.176 32.0095C24.9435 31.5196 24.6133 30.9542 24.4423 30.7527C24.0359 30.2742 23.6738 29.7073 23.7058 29.5995C23.7585 29.4212 22.9725 29.365 15.841 29.0367C14.3621 28.9686 12.1789 28.8372 10.9893 28.7444C8.42583 28.5448 8.33383 28.5428 8.24708 28.6832ZM65.5269 33.8769C65.3219 34.0791 65.0548 34.4024 64.9336 34.5953C64.8124 34.7882 64.6234 35.0125 64.5137 35.0938C64.404 35.175 64.0755 35.5554 63.7839 35.9388C63.3153 36.5549 63.2771 36.6482 63.4553 36.7401C63.8135 36.9249 66.1297 37.6934 66.3286 37.6934C66.4345 37.6934 66.5212 37.7495 66.5212 37.8181C66.5212 37.8898 66.6209 37.9113 66.755 37.8688C66.8836 37.828 66.9889 37.8451 66.9889 37.907C66.9889 37.9688 67.1073 38.0136 67.2519 38.0065C67.3965 37.9993 68.2141 38.094 69.0685 38.2169C70.4348 38.4134 70.7441 38.4228 71.6352 38.294C72.8695 38.1154 73.7639 37.8277 75.0077 37.209C76.0698 36.6807 77.8614 35.3985 77.8614 35.1666C77.8614 34.9896 77.6518 34.9494 75.4648 34.7069C74.5646 34.6071 72.3024 34.322 70.4377 34.0734C65.5752 33.4254 65.9688 33.4412 65.5269 33.8769ZM25.3107 33.6848C25.1178 33.7113 23.1449 33.9901 20.9266 34.3043C18.7082 34.6186 16.3737 34.9319 15.7387 35.0006C15.1037 35.0694 14.5342 35.1566 14.4732 35.1943C14.2983 35.3024 14.8231 35.7898 15.8547 36.4772C18.5434 38.2693 20.8089 38.7251 24.1763 38.1517C25.4733 37.9308 28.8764 36.961 28.8764 36.8121C28.8764 36.7825 28.585 36.4598 28.2289 36.095C27.858 35.7152 27.3778 35.0405 27.1051 34.5166L26.6291 33.6016L26.1453 33.6191C25.8791 33.6287 25.5036 33.6583 25.3107 33.6848ZM62.2907 37.0102L62.6782 37.2583L62.1059 37.7973C61.7911 38.0938 61.3862 38.56 61.2061 38.8333C61.0259 39.1065 60.8341 39.3301 60.7798 39.3301C60.7256 39.3301 60.5937 39.4636 60.4867 39.6268C60.3033 39.9067 60.3048 39.9327 60.5133 40.0869C60.6348 40.1767 60.971 40.3659 61.2603 40.5075C61.5497 40.649 61.8831 40.876 62.0012 41.012C62.1192 41.1479 62.1865 41.2008 62.1506 41.1295C62.1146 41.058 62.3677 41.1106 62.7129 41.2464C63.0581 41.382 63.3207 41.5258 63.2963 41.566C63.2445 41.6516 63.9604 41.8492 64.9174 42.0134C65.7896 42.1631 67.1916 41.9294 68.3924 41.4343C69.4427 41.0011 71.0201 40.0386 70.8853 39.913C70.832 39.8632 70.3149 39.68 69.7362 39.5058C68.7313 39.2034 66.053 38.2551 63.319 37.2338C62.6187 36.9722 62.0137 36.7591 61.9745 36.7601C61.9353 36.7612 62.0776 36.8737 62.2907 37.0102ZM27.4151 37.8754C26.0005 38.4158 24.1065 39.1021 23.2063 39.4008C22.3061 39.6994 21.5198 39.9897 21.459 40.0457C21.305 40.1875 21.6016 40.3889 22.9837 41.0801C25.3258 42.2516 26.8734 42.374 29.2272 41.5738C29.3236 41.5411 29.4419 41.5226 29.4902 41.5328C29.5385 41.5431 29.5779 41.49 29.5779 41.415C29.5779 41.34 29.6105 41.3111 29.6502 41.351C29.6901 41.3908 29.8021 41.3439 29.8991 41.2469C29.9962 41.1497 30.1505 41.0991 30.242 41.1342C30.3336 41.1692 30.3805 41.1527 30.3463 41.0976C30.3122 41.0423 30.5987 40.8029 30.9833 40.5656C31.6846 40.1327 31.7927 39.9967 31.5534 39.8488C31.4826 39.805 31.3474 39.5844 31.253 39.3587C31.0245 38.8119 30.4237 38.0255 29.9722 37.6825L29.6068 37.4047L29.9658 37.1399C30.1632 36.9943 30.2488 36.8791 30.1559 36.884C30.0631 36.8891 28.8297 37.3352 27.4151 37.8754ZM59.1697 39.7014L59.8266 40.3238L59.3733 40.7807C59.124 41.032 58.9428 41.2603 58.9706 41.2881C58.9985 41.3161 58.8411 41.5748 58.621 41.8632C58.4008 42.1517 58.2207 42.4589 58.2207 42.5457C58.2207 42.6327 58.1454 42.7791 58.0534 42.8711C57.9082 43.0163 57.9485 43.0833 58.3582 43.3764C58.6179 43.5621 58.93 43.8063 59.0517 43.9188C59.1732 44.0313 59.2728 44.0978 59.2728 44.0665C59.2728 44.0351 59.5687 44.1404 59.9303 44.3003C60.7265 44.6523 60.8497 44.6553 62.0275 44.3518C62.9576 44.1121 65.0014 43.2258 65.0014 43.0622C65.0014 43.0142 64.4359 42.6737 63.7446 42.3055C62.5927 41.6917 61.0082 40.7251 59.2144 39.5416L58.5129 39.0789L59.1697 39.7014ZM32.5006 39.9843C31.1598 40.898 28.9505 42.228 28.0288 42.6761C27.659 42.8559 27.3566 43.0471 27.3566 43.1009C27.3566 43.2557 29.2026 44.1001 30.1036 44.3575C30.5535 44.4859 31.1302 44.591 31.3852 44.591C31.933 44.591 33.525 43.8438 34.1418 43.297C34.3644 43.0997 34.4887 42.9663 34.418 43.0007C34.2166 43.0987 33.7712 42.5145 33.2504 41.4697C32.8115 40.589 32.7877 40.495 32.9581 40.3133C33.1104 40.1509 33.1122 40.132 32.9683 40.2074C32.8718 40.2579 33.0274 40.0548 33.3141 39.7561C33.6007 39.4576 33.7849 39.2165 33.7233 39.2203C33.6616 39.2243 33.1115 39.5681 32.5006 39.9843ZM35.0119 42.8123C34.6249 43.1797 33.8768 43.8601 33.3496 44.3241L32.391 45.1679L32.9252 45.4041C33.6449 45.7226 35.1465 46.1914 35.7184 46.2763L36.1833 46.3453L35.7156 46.1818C35.4584 46.092 35.3006 46.0113 35.3649 46.0025C35.4292 45.9937 35.3983 45.9224 35.2963 45.8441C35.12 45.7088 35.0717 45.5312 35.0671 45.0002C35.066 44.8652 34.9191 44.6826 34.7194 44.568C34.471 44.4254 34.3955 44.3131 34.4508 44.1689C34.5088 44.0177 34.4869 43.9922 34.3618 44.0659C34.178 44.174 34.177 44.1755 35.0859 43.0712C36.0164 41.9408 35.998 41.876 35.0119 42.8123ZM56.8149 42.4317C56.9098 42.5585 57.2386 42.9585 57.5456 43.3209C58.0778 43.9492 58.2394 44.221 57.9881 44.0658C57.9217 44.0247 57.9024 44.0721 57.9428 44.1773C57.9815 44.2778 57.9444 44.4428 57.8606 44.5438C57.5463 44.9225 57.6877 45.6382 58.0786 45.6485C58.2009 45.6518 58.1422 45.7164 57.9284 45.8144C57.7355 45.9026 57.6089 45.9792 57.647 45.9845C57.8379 46.0106 59.6156 45.3037 59.8358 45.1141C59.8791 45.0768 59.1598 44.4082 57.6946 43.1238C57.1159 42.6166 56.72 42.3051 56.8149 42.4317ZM34.5465 45.877C34.6751 45.9323 34.8593 45.9804 34.9557 45.9839C35.1116 45.9896 35.1116 45.9778 34.9557 45.877C34.8593 45.8147 34.6751 45.7666 34.5465 45.7702L34.3127 45.7766L34.5465 45.877ZM57.2635 46.0738C57.3478 46.1076 57.4487 46.1034 57.4875 46.0646C57.5263 46.0258 57.4574 45.9982 57.3341 46.0032C57.1979 46.0088 57.1702 46.0365 57.2635 46.0738ZM56.7959 46.1907C56.8802 46.2245 56.9811 46.2203 57.0199 46.1815C57.0587 46.1427 56.9897 46.1151 56.8665 46.1201C56.7303 46.1257 56.7026 46.1534 56.7959 46.1907ZM48.9922 52.9603C48.9881 53.0304 49.1656 53.7018 49.3864 54.4525C49.8973 56.1884 49.8655 56.4852 49.0871 57.2538C48.7737 57.5633 48.5172 57.889 48.5172 57.9776C48.5172 58.0662 48.4625 58.1725 48.3955 58.2139C48.3286 58.2553 48.3058 58.3898 48.345 58.5131C48.3929 58.6643 48.3603 58.7371 48.2444 58.7371C48.0282 58.7371 48.0552 59.0335 48.5739 62.3482C48.789 63.7235 48.9375 64.9207 48.9037 65.0088C48.8117 65.2484 48.9798 66.0024 49.1077 65.9234C49.1687 65.8856 49.2186 65.9588 49.2186 66.0859C49.2186 66.2131 49.2499 66.4135 49.2881 66.5312C49.346 66.7094 49.3364 66.7159 49.2315 66.57C49.1304 66.4293 49.1056 66.4642 49.1065 66.7454C49.1081 67.1888 49.8197 69.2909 49.9857 69.3423C50.1095 69.3805 51.6535 68.123 53.0592 66.839L53.8016 66.1608L52.8445 63.5888C51.92 61.1047 50.5639 57.327 49.5082 54.2945C49.2285 53.4908 48.9962 52.8904 48.9922 52.9603ZM42.9694 53.9053C42.8466 54.3946 40.5609 60.8004 39.4933 63.6473L38.5507 66.1608L39.4129 66.9575C40.5559 68.0137 42.2293 69.3695 42.3945 69.373C42.467 69.3745 42.5815 69.2312 42.6487 69.0543C43.0849 67.9077 43.41 66.3379 43.139 66.6869C43.0305 66.8266 43.017 66.7808 43.0723 66.462C43.7566 62.5166 44.1905 59.6749 44.1891 59.1462C44.1869 58.3323 43.8467 57.7105 42.8605 56.7183L42.4063 56.2613L42.7837 54.977C42.9914 54.2708 43.1363 53.6679 43.1058 53.6375C43.0754 53.6071 43.014 53.7276 42.9694 53.9053ZM44.6896 57.8895C44.1503 61.7078 43.663 65.2663 43.3809 67.4468L43.0481 70.0188L44.5242 71.5094C45.336 72.3293 46.0753 73 46.1668 73C46.2585 73 46.9826 72.3583 47.7761 71.5738C48.8669 70.4955 49.219 70.0749 49.2203 69.8494C49.2246 69.0872 47.6675 57.477 47.5183 57.1588C47.4882 57.0945 47.4917 57.397 47.5259 57.831C47.5767 58.4709 47.5564 58.6202 47.4191 58.6202C47.3259 58.6202 47.0314 58.8363 46.7646 59.1004L46.2794 59.5808L46.0247 59.3479C45.6628 59.0174 45.0251 58.7139 44.8805 58.8032C44.7962 58.8554 44.7837 58.5823 44.8405 57.9312C44.886 57.4099 44.8994 56.9834 44.8703 56.9834C44.8413 56.9834 44.76 57.3911 44.6896 57.8895Z" fill="white"/>
</svg>
